<svg aria-roledescription="class" role="graphics-document document" viewBox="0 0 478.125 482" style="max-width: 478.125px; background-color: white;" class="classDiagram" xmlns:xlink="http://www.w3.org/1999/xlink" xmlns="http://www.w3.org/2000/svg" width="100%" id="my-svg"><style>#my-svg{font-family:"trebuchet ms",verdana,arial,sans-serif;font-size:16px;fill:#333;}@keyframes edge-animation-frame{from{stroke-dashoffset:0;}}@keyframes dash{to{stroke-dashoffset:0;}}#my-svg .edge-animation-slow{stroke-dasharray:9,5!important;stroke-dashoffset:900;animation:dash 50s linear infinite;stroke-linecap:round;}#my-svg .edge-animation-fast{stroke-dasharray:9,5!important;stroke-dashoffset:900;animation:dash 20s linear infinite;stroke-linecap:round;}#my-svg .error-icon{fill:#552222;}#my-svg .error-text{fill:#552222;stroke:#552222;}#my-svg .edge-thickness-normal{stroke-width:1px;}#my-svg .edge-thickness-thick{stroke-width:3.5px;}#my-svg .edge-pattern-solid{stroke-dasharray:0;}#my-svg .edge-thickness-invisible{stroke-width:0;fill:none;}#my-svg .edge-pattern-dashed{stroke-dasharray:3;}#my-svg .edge-pattern-dotted{stroke-dasharray:2;}#my-svg .marker{fill:#333333;stroke:#333333;}#my-svg .marker.cross{stroke:#333333;}#my-svg svg{font-family:"trebuchet ms",verdana,arial,sans-serif;font-size:16px;}#my-svg p{margin:0;}#my-svg g.classGroup text{fill:#9370DB;stroke:none;font-family:"trebuchet ms",verdana,arial,sans-serif;font-size:10px;}#my-svg g.classGroup text .title{font-weight:bolder;}#my-svg .nodeLabel,#my-svg .edgeLabel{color:#131300;}#my-svg .edgeLabel .label rect{fill:#ECECFF;}#my-svg .label text{fill:#131300;}#my-svg .labelBkg{background:#ECECFF;}#my-svg .edgeLabel .label span{background:#ECECFF;}#my-svg .classTitle{font-weight:bolder;}#my-svg .node rect,#my-svg .node circle,#my-svg .node ellipse,#my-svg .node polygon,#my-svg .node path{fill:#ECECFF;stroke:#9370DB;stroke-width:1px;}#my-svg .divider{stroke:#9370DB;stroke-width:1;}#my-svg g.clickable{cursor:pointer;}#my-svg g.classGroup rect{fill:#ECECFF;stroke:#9370DB;}#my-svg g.classGroup line{stroke:#9370DB;stroke-width:1;}#my-svg .classLabel .box{stroke:none;stroke-width:0;fill:#ECECFF;opacity:0.5;}#my-svg .classLabel .label{fill:#9370DB;font-size:10px;}#my-svg .relation{stroke:#333333;stroke-width:1;fill:none;}#my-svg .dashed-line{stroke-dasharray:3;}#my-svg .dotted-line{stroke-dasharray:1 2;}#my-svg #compositionStart,#my-svg .composition{fill:#333333!important;stroke:#333333!important;stroke-width:1;}#my-svg #compositionEnd,#my-svg .composition{fill:#333333!important;stroke:#333333!important;stroke-width:1;}#my-svg #dependencyStart,#my-svg .dependency{fill:#333333!important;stroke:#333333!important;stroke-width:1;}#my-svg #dependencyStart,#my-svg .dependency{fill:#333333!important;stroke:#333333!important;stroke-width:1;}#my-svg #extensionStart,#my-svg .extension{fill:transparent!important;stroke:#333333!important;stroke-width:1;}#my-svg #extensionEnd,#my-svg .extension{fill:transparent!important;stroke:#333333!important;stroke-width:1;}#my-svg #aggregationStart,#my-svg .aggregation{fill:transparent!important;stroke:#333333!important;stroke-width:1;}#my-svg #aggregationEnd,#my-svg .aggregation{fill:transparent!important;stroke:#333333!important;stroke-width:1;}#my-svg #lollipopStart,#my-svg .lollipop{fill:#ECECFF!important;stroke:#333333!important;stroke-width:1;}#my-svg #lollipopEnd,#my-svg .lollipop{fill:#ECECFF!important;stroke:#333333!important;stroke-width:1;}#my-svg .edgeTerminals{font-size:11px;line-height:initial;}#my-svg .classTitleText{text-anchor:middle;font-size:18px;fill:#333;}#my-svg .label-icon{display:inline-block;height:1em;overflow:visible;vertical-align:-0.125em;}#my-svg .node .label-icon path{fill:currentColor;stroke:revert;stroke-width:revert;}#my-svg :root{--mermaid-font-family:"trebuchet ms",verdana,arial,sans-serif;}</style><g><defs><marker orient="auto" markerHeight="240" markerWidth="190" refY="7" refX="18" class="marker aggregation class" id="my-svg_class-aggregationStart"><path d="M 18,7 L9,13 L1,7 L9,1 Z"/></marker></defs><defs><marker orient="auto" markerHeight="28" markerWidth="20" refY="7" refX="1" class="marker aggregation class" id="my-svg_class-aggregationEnd"><path d="M 18,7 L9,13 L1,7 L9,1 Z"/></marker></defs><defs><marker orient="auto" markerHeight="240" markerWidth="190" refY="7" refX="18" class="marker extension class" id="my-svg_class-extensionStart"><path d="M 1,7 L18,13 V 1 Z"/></marker></defs><defs><marker orient="auto" markerHeight="28" markerWidth="20" refY="7" refX="1" class="marker extension class" id="my-svg_class-extensionEnd"><path d="M 1,1 V 13 L18,7 Z"/></marker></defs><defs><marker orient="auto" markerHeight="240" markerWidth="190" refY="7" refX="18" class="marker composition class" id="my-svg_class-compositionStart"><path d="M 18,7 L9,13 L1,7 L9,1 Z"/></marker></defs><defs><marker orient="auto" markerHeight="28" markerWidth="20" refY="7" refX="1" class="marker composition class" id="my-svg_class-compositionEnd"><path d="M 18,7 L9,13 L1,7 L9,1 Z"/></marker></defs><defs><marker orient="auto" markerHeight="240" markerWidth="190" refY="7" refX="6" class="marker dependency class" id="my-svg_class-dependencyStart"><path d="M 5,7 L9,13 L1,7 L9,1 Z"/></marker></defs><defs><marker orient="auto" markerHeight="28" markerWidth="20" refY="7" refX="13" class="marker dependency class" id="my-svg_class-dependencyEnd"><path d="M 18,7 L9,13 L14,7 L9,1 Z"/></marker></defs><defs><marker orient="auto" markerHeight="240" markerWidth="190" refY="7" refX="13" class="marker lollipop class" id="my-svg_class-lollipopStart"><circle r="6" cy="7" cx="7" fill="transparent" stroke="black"/></marker></defs><defs><marker orient="auto" markerHeight="240" markerWidth="190" refY="7" refX="1" class="marker lollipop class" id="my-svg_class-lollipopEnd"><circle r="6" cy="7" cx="7" fill="transparent" stroke="black"/></marker></defs><g class="root"><g class="clusters"/><g class="edgePaths"/><g class="edgeLabels"/><g class="nodes"><g transform="translate(239.0625, 62)" id="classId-LogEventIds-0" class="node default"><g class="basic label-container"><path style="" fill="#ECECFF" stroke-width="0" stroke="none" d="M-56.546875 -54 L56.546875 -54 L56.546875 54 L-56.546875 54"/><path style="" stroke-dasharray="0 0" fill="none" stroke-width="1.3" stroke="#9370DB" d="M-56.546875 -54 C-31.08006536275557 -54, -5.613255725511138 -54, 56.546875 -54 M-56.546875 -54 C-12.917139080335652 -54, 30.712596839328697 -54, 56.546875 -54 M56.546875 -54 C56.546875 -28.765782517701517, 56.546875 -3.531565035403034, 56.546875 54 M56.546875 -54 C56.546875 -26.747132305509787, 56.546875 0.5057353889804261, 56.546875 54 M56.546875 54 C28.353431918338458 54, 0.15998883667691643 54, -56.546875 54 M56.546875 54 C14.958881834852015 54, -26.62911133029597 54, -56.546875 54 M-56.546875 54 C-56.546875 29.039879473783085, -56.546875 4.0797589475661695, -56.546875 -54 M-56.546875 54 C-56.546875 29.958881892415793, -56.546875 5.917763784831585, -56.546875 -54"/></g><g transform="translate(-40.8046875, -30)" class="annotation-group text"><g transform="translate(0,-12)" style="" class="label"><foreignObject height="24" width="81.609375"><div style="display: table-cell; white-space: nowrap; line-height: 1.5; max-width: 122px; text-align: center;" xmlns="http://www.w3.org/1999/xhtml"><span style="" class="nodeLabel markdown-node-label"><p>«static ids»</p></span></div></foreignObject></g></g><g transform="translate(-44.546875, -6)" class="label-group text"><g transform="translate(0,-12)" style="font-weight: bolder" class="label"><foreignObject height="24" width="89.09375"><div style="display: table-cell; white-space: nowrap; line-height: 1.5; max-width: 134px; text-align: center;" xmlns="http://www.w3.org/1999/xhtml"><span style="" class="nodeLabel markdown-node-label"><p>LogEventIds</p></span></div></foreignObject></g></g><g transform="translate(-44.546875, 42)" class="members-group text"/><g transform="translate(-44.546875, 72)" class="methods-group text"/><g style="" class="divider"><path style="" stroke-dasharray="0 0" fill="none" stroke-width="1.3" stroke="#9370DB" d="M-56.546875 18 C-20.614057150423115 18, 15.31876069915377 18, 56.546875 18 M-56.546875 18 C-31.39060292490449 18, -6.234330849808977 18, 56.546875 18"/></g><g style="" class="divider"><path style="" stroke-dasharray="0 0" fill="none" stroke-width="1.3" stroke="#9370DB" d="M-56.546875 36 C-15.504344006105832 36, 25.538186987788336 36, 56.546875 36 M-56.546875 36 C-23.108648318232483 36, 10.329578363535035 36, 56.546875 36"/></g></g><g transform="translate(239.0625, 220)" id="classId-LogSeverity-1" class="node default"><g class="basic label-container"><path style="" fill="#ECECFF" stroke-width="0" stroke="none" d="M-55.71875 -54 L55.71875 -54 L55.71875 54 L-55.71875 54"/><path style="" stroke-dasharray="0 0" fill="none" stroke-width="1.3" stroke="#9370DB" d="M-55.71875 -54 C-28.20361255238283 -54, -0.6884751047656579 -54, 55.71875 -54 M-55.71875 -54 C-31.859369990441156 -54, -7.999989980882312 -54, 55.71875 -54 M55.71875 -54 C55.71875 -19.055006663903157, 55.71875 15.889986672193686, 55.71875 54 M55.71875 -54 C55.71875 -30.498633647546633, 55.71875 -6.997267295093266, 55.71875 54 M55.71875 54 C12.733456568132205 54, -30.25183686373559 54, -55.71875 54 M55.71875 54 C14.602483083246383 54, -26.513783833507233 54, -55.71875 54 M-55.71875 54 C-55.71875 11.652876891882464, -55.71875 -30.694246216235072, -55.71875 -54 M-55.71875 54 C-55.71875 18.103137260840093, -55.71875 -17.793725478319814, -55.71875 -54"/></g><g transform="translate(-28.140625, -30)" class="annotation-group text"><g transform="translate(0,-12)" style="" class="label"><foreignObject height="24" width="56.28125"><div style="display: table-cell; white-space: nowrap; line-height: 1.5; max-width: 102px; text-align: center;" xmlns="http://www.w3.org/1999/xhtml"><span style="" class="nodeLabel markdown-node-label"><p>«enum»</p></span></div></foreignObject></g></g><g transform="translate(-43.71875, -6)" class="label-group text"><g transform="translate(0,-12)" style="font-weight: bolder" class="label"><foreignObject height="24" width="87.4375"><div style="display: table-cell; white-space: nowrap; line-height: 1.5; max-width: 131px; text-align: center;" xmlns="http://www.w3.org/1999/xhtml"><span style="" class="nodeLabel markdown-node-label"><p>LogSeverity</p></span></div></foreignObject></g></g><g transform="translate(-43.71875, 42)" class="members-group text"/><g transform="translate(-43.71875, 72)" class="methods-group text"/><g style="" class="divider"><path style="" stroke-dasharray="0 0" fill="none" stroke-width="1.3" stroke="#9370DB" d="M-55.71875 18 C-26.88741494621871 18, 1.9439201075625832 18, 55.71875 18 M-55.71875 18 C-31.506344924803276 18, -7.293939849606552 18, 55.71875 18"/></g><g style="" class="divider"><path style="" stroke-dasharray="0 0" fill="none" stroke-width="1.3" stroke="#9370DB" d="M-55.71875 36 C-27.714125366933786 36, 0.2904992661324286 36, 55.71875 36 M-55.71875 36 C-26.45918339502075 36, 2.800383209958497 36, 55.71875 36"/></g></g><g transform="translate(239.0625, 399)" id="classId-LogSeverityExtensions-2" class="node default"><g class="basic label-container"><path style="" fill="#ECECFF" stroke-width="0" stroke="none" d="M-231.0625 -75 L231.0625 -75 L231.0625 75 L-231.0625 75"/><path style="" stroke-dasharray="0 0" fill="none" stroke-width="1.3" stroke="#9370DB" d="M-231.0625 -75 C-129.7387369067929 -75, -28.41497381358579 -75, 231.0625 -75 M-231.0625 -75 C-136.7269707318276 -75, -42.39144146365521 -75, 231.0625 -75 M231.0625 -75 C231.0625 -22.061229823927754, 231.0625 30.877540352144493, 231.0625 75 M231.0625 -75 C231.0625 -22.92449253760512, 231.0625 29.151014924789763, 231.0625 75 M231.0625 75 C90.53623761352952 75, -49.990024772940956 75, -231.0625 75 M231.0625 75 C95.63593162422859 75, -39.79063675154282 75, -231.0625 75 M-231.0625 75 C-231.0625 31.611331666699293, -231.0625 -11.777336666601414, -231.0625 -75 M-231.0625 75 C-231.0625 33.003244249907986, -231.0625 -8.993511500184027, -231.0625 -75"/></g><g transform="translate(0, -51)" class="annotation-group text"/><g transform="translate(-83.703125, -51)" class="label-group text"><g transform="translate(0,-12)" style="font-weight: bolder" class="label"><foreignObject height="24" width="167.40625"><div style="display: table-cell; white-space: nowrap; line-height: 1.5; max-width: 200px; text-align: center;" xmlns="http://www.w3.org/1999/xhtml"><span style="" class="nodeLabel markdown-node-label"><p>LogSeverityExtensions</p></span></div></foreignObject></g></g><g transform="translate(-219.0625, -3)" class="members-group text"/><g transform="translate(-219.0625, 27)" class="methods-group text"><g transform="translate(0,-12)" style="" class="label"><foreignObject height="24" width="354.421875"><div style="display: table-cell; white-space: nowrap; line-height: 1.5; max-width: 385px; text-align: center;" xmlns="http://www.w3.org/1999/xhtml"><span style="" class="nodeLabel markdown-node-label"><p>+IsAtLeast(s: LogSeverity, threshold: LogSeverity)</p></span></div></foreignObject></g><g transform="translate(0,12)" style="" class="label"><foreignObject height="24" width="197.234375"><div style="display: table-cell; white-space: nowrap; line-height: 1.5; max-width: 244px; text-align: center;" xmlns="http://www.w3.org/1999/xhtml"><span style="" class="nodeLabel markdown-node-label"><p>+ToShortTag(s: LogSeverity)</p></span></div></foreignObject></g></g><g style="" class="divider"><path style="" stroke-dasharray="0 0" fill="none" stroke-width="1.3" stroke="#9370DB" d="M-231.0625 -27 C-78.45279334061587 -27, 74.15691331876826 -27, 231.0625 -27 M-231.0625 -27 C-96.44395620665262 -27, 38.17458758669477 -27, 231.0625 -27"/></g><g style="" class="divider"><path style="" stroke-dasharray="0 0" fill="none" stroke-width="1.3" stroke="#9370DB" d="M-231.0625 -3 C-60.08074976637042 -3, 110.90100046725917 -3, 231.0625 -3 M-231.0625 -3 C-94.17789419186855 -3, 42.70671161626291 -3, 231.0625 -3"/></g></g></g></g></g></svg>